<svg xmlns="http://www.w3.org/2000/svg" viewBox="0 0 1200 750" width="1200" height="750" role="img" aria-label="Museum of Contemporary Art">
  <title>Museum of Contemporary Art</title>
  <defs>
    <linearGradient id="sky" x1="0" y1="0" x2="0" y2="1">
      <stop offset="0" stop-color="#0a1128"/>
      <stop offset="1" stop-color="#16295f"/>
    </linearGradient>
    <radialGradient id="glow" cx="50%" cy="46%" r="52%">
      <stop offset="0" stop-color="#ffd700" stop-opacity=".22"/>
      <stop offset="1" stop-color="#ffd700" stop-opacity="0"/>
    </radialGradient>
    <linearGradient id="gold" x1="0" y1="0" x2="0" y2="1">
      <stop offset="0" stop-color="#ffe9a8"/>
      <stop offset=".55" stop-color="#ffd700"/>
      <stop offset="1" stop-color="#b8860b"/>
    </linearGradient>
  </defs>

  <rect width="1200" height="750" fill="url(#sky)"/>
  <rect width="1200" height="750" fill="url(#glow)"/>
  <circle cx="616" cy="354" r="1.6" fill="#ffe9a8" opacity="0.27"/><circle cx="1035" cy="329" r="1" fill="#ffe9a8" opacity="0.18"/><circle cx="254" cy="305" r="2.2" fill="#ffe9a8" opacity="0.54"/><circle cx="673" cy="280" r="1.6" fill="#ffe9a8" opacity="0.45"/><circle cx="1092" cy="255" r="1" fill="#ffe9a8" opacity="0.36"/><circle cx="311" cy="230" r="2.2" fill="#ffe9a8" opacity="0.27"/><circle cx="730" cy="205" r="1.6" fill="#ffe9a8" opacity="0.18"/><circle cx="1149" cy="180" r="1" fill="#ffe9a8" opacity="0.54"/><circle cx="864" cy="173" r="1" fill="#ffe9a8" opacity="0.54"/><circle cx="83" cy="148" r="2.2" fill="#ffe9a8" opacity="0.45"/><circle cx="1119" cy="276" r="1" fill="#ffe9a8" opacity="0.54"/><circle cx="338" cy="252" r="2.2" fill="#ffe9a8" opacity="0.45"/><circle cx="757" cy="227" r="1.6" fill="#ffe9a8" opacity="0.36"/><circle cx="1176" cy="202" r="1" fill="#ffe9a8" opacity="0.27"/><circle cx="643" cy="376" r="1.6" fill="#ffe9a8" opacity="0.45"/><circle cx="1062" cy="351" r="1" fill="#ffe9a8" opacity="0.36"/><circle cx="281" cy="326" r="2.2" fill="#ffe9a8" opacity="0.27"/><circle cx="700" cy="301" r="1.6" fill="#ffe9a8" opacity="0.18"/><circle cx="871" cy="78" r="1.6" fill="#ffe9a8" opacity="0.27"/><circle cx="90" cy="53" r="1" fill="#ffe9a8" opacity="0.18"/><circle cx="1174" cy="229" r="1.6" fill="#ffe9a8" opacity="0.54"/><circle cx="755" cy="254" r="2.2" fill="#ffe9a8" opacity="0.18"/><circle cx="884" cy="251" r="2.2" fill="#ffe9a8" opacity="0.54"/><circle cx="103" cy="227" r="1.6" fill="#ffe9a8" opacity="0.45"/><circle cx="46" cy="301" r="1.6" fill="#ffe9a8" opacity="0.27"/><circle cx="465" cy="276" r="1" fill="#ffe9a8" opacity="0.18"/>
  <g fill="url(#gold)" stroke="url(#gold)" stroke-width="0" stroke-linejoin="round">
      <path d="M280 360 L600 232 L920 360 Z"/>
      <rect x="280" y="360" width="640" height="26" rx="5"/>
      <rect x="325" y="380" width="30" height="150" rx="4"/>
      <rect x="429" y="380" width="30" height="150" rx="4"/>
      <rect x="533" y="380" width="30" height="150" rx="4"/>
      <rect x="637" y="380" width="30" height="150" rx="4"/>
      <rect x="741" y="380" width="30" height="150" rx="4"/>
      <rect x="845" y="380" width="30" height="150" rx="4"/>
      <rect x="260" y="530" width="680" height="14" rx="4"/>
      <rect x="240" y="544" width="720" height="16" rx="4"/>
  </g>
  <text x="600" y="618" text-anchor="middle" font-family="Poppins, Montserrat, Helvetica, Arial, sans-serif" font-size="26" letter-spacing="6" fill="#ffd700" opacity=".85">MODERN ART MUSEUM</text>
  <text x="54" y="618" font-family="Playfair Display, Georgia, serif" font-size="28" font-weight="700" fill="#ffd700" opacity=".75">FeelBG</text>
</svg>
